<?xml version="1.0" standalone="no"?>
<!DOCTYPE svg PUBLIC "-//W3C//DTD SVG 20010904//EN"
 "http://www.w3.org/TR/2001/REC-SVG-20010904/DTD/svg10.dtd">
<svg version="1.0" xmlns="http://www.w3.org/2000/svg"
 width="512.000000pt" height="512.000000pt" viewBox="0 0 512.000000 512.000000"
 preserveAspectRatio="xMidYMid meet">
<metadata>
Created by potrace 1.14, written by Peter Selinger 2001-2017
</metadata>
<g transform="translate(0.000000,512.000000) scale(0.100000,-0.100000)"
fill="#000000" stroke="none">
<path d="M2630 4480 c-66 -11 -166 -47 -211 -75 -21 -14 -42 -25 -45 -25 -4 0
-46 -39 -94 -87 -78 -79 -160 -187 -160 -211 0 -5 -6 -14 -13 -20 -11 -10 -48
-114 -77 -217 -5 -16 -14 -81 -20 -144 -12 -115 -2 -320 20 -431 5 -25 16
-103 25 -175 20 -175 21 -184 40 -305 9 -58 20 -139 25 -180 10 -81 36 -260
48 -325 5 -25 13 -41 24 -43 15 -3 159 84 166 101 2 4 10 7 18 7 18 0 141 89
148 107 3 7 -1 64 -10 126 -8 61 -19 144 -25 182 -5 39 -11 81 -14 95 -3 14
-10 59 -15 100 -10 80 -35 271 -51 385 -26 196 -31 281 -26 460 6 183 10 210
43 320 42 138 164 209 277 161 48 -20 71 -51 123 -166 81 -180 113 -210 227
-210 76 0 112 21 162 95 32 49 28 163 -10 240 -73 148 -251 246 -444 244 -47
-1 -106 -5 -131 -9z"/>
<path d="M2895 2717 c-27 -17 -51 -35 -53 -39 -2 -5 -10 -8 -18 -8 -8 0 -14
-4 -14 -9 0 -5 -11 -12 -25 -15 -14 -4 -25 -11 -25 -16 0 -6 -6 -10 -14 -10
-8 0 -16 -3 -18 -7 -1 -5 -29 -25 -62 -46 -55 -36 -58 -40 -52 -70 4 -18 11
-68 16 -112 19 -177 31 -261 40 -280 5 -11 11 -54 14 -95 6 -114 25 -298 36
-361 13 -71 13 -346 0 -401 -5 -24 -14 -72 -20 -108 -6 -36 -14 -78 -17 -95
-7 -37 -46 -100 -86 -140 -29 -28 -35 -30 -112 -30 -77 0 -83 2 -112 30 -17
17 -33 41 -37 53 -4 12 -12 22 -17 22 -5 0 -9 9 -9 20 0 11 -4 28 -9 38 -4 9
-15 33 -23 52 -33 77 -44 93 -78 118 -57 44 -77 52 -124 52 -59 0 -104 -21
-147 -67 -69 -75 -74 -186 -14 -300 24 -44 107 -133 125 -133 6 0 10 -3 10 -8
0 -4 17 -16 38 -26 20 -10 45 -22 54 -27 61 -31 328 -53 351 -30 6 6 24 11 40
11 16 0 44 7 63 15 19 8 51 22 72 31 91 40 202 136 269 234 40 59 93 159 93
176 0 8 5 14 10 14 6 0 10 8 10 18 0 9 7 30 15 46 8 15 15 41 15 57 0 15 4 30
9 34 5 3 12 31 16 63 3 31 11 86 17 121 11 64 7 131 -22 376 -6 50 -15 131
-20 180 -5 50 -16 140 -25 200 -9 61 -19 142 -24 181 -4 38 -11 76 -15 82 -4
7 -11 42 -16 80 -17 125 -28 162 -49 162 -3 0 -28 -15 -56 -33z"/>
</g>
</svg>
